<svg xmlns="http://www.w3.org/2000/svg" viewBox="0 0 512 341.33"><defs><style>.cls-1{fill:#05668d;}</style></defs><g id="Layer_2" data-name="Layer 2"><g id="Capa_1" data-name="Capa 1"><path class="cls-1" d="M458.67,0H53.33A53.41,53.41,0,0,0,0,53.33V288a53.4,53.4,0,0,0,53.33,53.33H458.67A53.4,53.4,0,0,0,512,288V53.33A53.41,53.41,0,0,0,458.67,0Zm32,288a32,32,0,0,1-32,32H53.33a32,32,0,0,1-32-32V53.33a32,32,0,0,1,32-32H458.67a32,32,0,0,1,32,32V288Z"/><path class="cls-1" d="M501.33,64H10.67A10.67,10.67,0,0,0,0,74.67v64a10.67,10.67,0,0,0,10.67,10.66H501.33A10.67,10.67,0,0,0,512,138.67v-64A10.67,10.67,0,0,0,501.33,64Zm-10.66,64H21.33V85.33H490.67V128Z"/><path class="cls-1" d="M202.67,213.33h-128a10.67,10.67,0,0,0,0,21.34h128a10.67,10.67,0,0,0,0-21.34Z"/><path class="cls-1" d="M202.67,256h-128a10.67,10.67,0,1,0,0,21.33h128a10.67,10.67,0,0,0,0-21.33Z"/><path class="cls-1" d="M416,192H394.67a32,32,0,0,0-32,32v21.33a32,32,0,0,0,32,32H416a32,32,0,0,0,32-32V224A32,32,0,0,0,416,192Zm10.67,53.33A10.67,10.67,0,0,1,416,256H394.67A10.67,10.67,0,0,1,384,245.33V224a10.67,10.67,0,0,1,10.67-10.67H416A10.67,10.67,0,0,1,426.67,224Z"/></g></g></svg>