<svg xmlns="http://www.w3.org/2000/svg" viewBox="0 0 185.25 339.01"><defs><style>.cls-1{fill:#05668d;}</style></defs><g id="Layer_2" data-name="Layer 2"><g id="Capa_1" data-name="Capa 1"><path class="cls-1" d="M185.24,232.34c.2-26.82-10.4-48-31.55-63C137.36,157.8,117.54,151.79,98.37,146c-39.94-12.1-51.52-18.48-51.52-37.58,0-21.27,27.64-28.84,51.31-28.84,17.24,0,37.07,5.36,49.38,13.3L172,55.07c-16.1-10.43-38.13-17.55-59.88-19.76V0H67V37.78c-40,8.81-65.25,35-65.25,70.64,0,25,10.38,44.79,30.79,58.76C48.1,177.84,67,183.57,85.32,189.12c39.18,11.84,55.08,19,54.9,42.95v.17c0,20.06-26.58,27.18-49.35,27.18C69.37,259.42,46,250,32.72,236L0,266.93c16.79,17.76,41.18,30.32,67,35.24V339h45V303C156.57,296.59,185.2,269.81,185.24,232.34Z"/></g></g></svg>