<svg xmlns="http://www.w3.org/2000/svg" viewBox="0 0 463.52 243.2"><defs><style>.cls-1{fill:#05668d;}</style></defs><g id="Layer_2" data-name="Layer 2"><g id="Capa_1" data-name="Capa 1"><path class="cls-1" d="M419.76,57.6h-.36a15,15,0,0,1-14.8-15.12,8,8,0,0,0-8-8H66.47a8,8,0,0,0-7.79,8.2A15,15,0,0,1,43.76,57.6a8,8,0,0,0-8,8v112a8,8,0,0,0,8,8h.16a15,15,0,0,1,15,14.92,8,8,0,0,0,8,8H396.84a8,8,0,0,0,8-8,15,15,0,0,1,14.92-14.92,8,8,0,0,0,8-8V65.6A8,8,0,0,0,419.76,57.6Zm-345.84,135A31.25,31.25,0,0,0,52,170.64V72.52A31.25,31.25,0,0,0,73.92,50.6H182.16a86.64,86.64,0,0,0,0,142Zm108-21.25a70.44,70.44,0,0,1,99.76-99.47l-.08,0a70.42,70.42,0,1,1-99.68,99.51Zm229.64-.63A31.25,31.25,0,0,0,389.6,192.6H281.36a86.6,86.6,0,0,0,0-142H389.6a31.25,31.25,0,0,0,21.92,21.92v98.12Z"/><path class="cls-1" d="M258.92,121.6a52.1,52.1,0,0,0-19.16-7.08V88.76a52.51,52.51,0,0,1,8.48,2,51.36,51.36,0,0,0,9.44,2.52q6.79,0,6.8-7.44,0-3.6-5.4-6.4a56,56,0,0,0-19.32-4.56V65.6a8,8,0,0,0-16,0v9.84a39.63,39.63,0,0,0-16,7.24A24.56,24.56,0,0,0,197,103a19.78,19.78,0,0,0,7.12,15.56,28.17,28.17,0,0,0,8,4,58.72,58.72,0,0,0,8.72,2.52l3,.52v28a68.52,68.52,0,0,1-9.68-2.32,70.55,70.55,0,0,0-11.32-3.12q-7,0-7,8.44,0,4.6,11.52,8.32a75.36,75.36,0,0,0,16.48,3.36v9.32a8,8,0,1,0,16,0V168a38.27,38.27,0,0,0,17.88-7,24.88,24.88,0,0,0,10.12-21A20.48,20.48,0,0,0,258.92,121.6ZM223.76,112a40.86,40.86,0,0,1-5.24-1.4,9.23,9.23,0,0,1-4.72-3.12,8.54,8.54,0,0,1-1.32-4.92,12,12,0,0,1,5.8-10.24,21.57,21.57,0,0,1,5.48-2.72V112Zm28.48,28.8a11.24,11.24,0,0,1-5.8,10,22.85,22.85,0,0,1-6.68,2.76v-25a34.51,34.51,0,0,1,7.28,2.72A9.83,9.83,0,0,1,252.24,140.8Z"/><path class="cls-1" d="M422.44,0H41.12A41.19,41.19,0,0,0,0,41.08v161A41.19,41.19,0,0,0,41.12,243.2H422.4a41.19,41.19,0,0,0,41.12-41.08v-161A41.21,41.21,0,0,0,422.44,0Zm24.92,202.12A25,25,0,0,1,422.44,227H41.12A25,25,0,0,1,16.2,202.12v-161A25,25,0,0,1,41.12,16.16H422.44a25,25,0,0,1,24.92,24.92v161Z"/></g></g></svg>